<?xml version="1.0" encoding="utf-8"?>
<!-- Generator: Adobe Illustrator 22.1.0, SVG Export Plug-In . SVG Version: 6.00 Build 0)  -->
<svg version="1.1" id="Layer_1" xmlns="http://www.w3.org/2000/svg" xmlns:xlink="http://www.w3.org/1999/xlink" x="0px" y="0px"
	 viewBox="0 0 187 212" style="enable-background:new 0 0 187 212;" xml:space="preserve">
<style type="text/css">
	.st0{fill:#EE8329;}
	.st1{fill:#EF4323;}
	.st2{fill:#EF937D;}
</style>
<g>
	<path class="st0" d="M151.6,173.2L52,50.1c-3.9-4.9-3.2-12,1.7-15.9l0,0c4.9-3.9,12-3.2,15.9,1.7L169.3,159
		c3.9,4.9,3.2,12-1.7,15.9l0,0C162.7,178.9,155.6,178.1,151.6,173.2z"/>
	<path class="st1" d="M31.3,75.2L31.3,75.2c4.4-3.5,10.7-2.8,14.3,1.5l70.6,87.4c3.5,4.4,2.8,10.7-1.5,14.3l0,0
		c-4.4,3.5-10.7,2.8-14.3-1.5L29.8,89.4C26.2,85.1,26.9,78.7,31.3,75.2z"/>
	<path class="st2" d="M19,119.8L19,119.8c4.4-3.5,10.7-2.8,14.3,1.5l33,40.8c3.5,4.4,2.8,10.7-1.5,14.3l0,0
		c-4.4,3.5-10.7,2.8-14.3-1.5l-33-40.8C14,129.8,14.7,123.4,19,119.8z"/>
</g>
</svg>
